<?xml version="1.0" encoding="utf-8"?>
<!-- Designed by Vexels.com - 2020 All Rights Reserved - https://vexels.com/terms-and-conditions/  -->
<svg version="1.1" id="Layer_1" xmlns="http://www.w3.org/2000/svg" xmlns:xlink="http://www.w3.org/1999/xlink" x="0px" y="0px"
	 viewBox="0 0 1200 1200" enable-background="new 0 0 1200 1200" xml:space="preserve">
<path fill="#503271" d="M1049.849,91.534c-17.899,3.169-36.152,14.408-49.606,27.952c-6.713-2.916-14.209-4.554-22.25-4.554H650.907
	c-0.66-6.31-2.724-10.973-6.913-12.709c-6.56-2.717-14.507,3.237-22.334,12.709h-67.751c-7.828-9.472-15.775-15.426-22.334-12.709
	c-4.189,1.736-6.253,6.399-6.913,12.709H370.059C383.501,84.61,313.335,50,313.335,50c-4.516,21.508,3.475,48.702,15.817,64.932
	H203.587c-30.464,0-53.436,22.971-53.436,53.432v219.404c0,30.853,22.973,54.118,53.436,54.118h31.808
	c-2.042,18.853,0.294,38.054,0.294,38.054c17.578-6.872,33.426-25.015,39.941-41.639c18.072-6.787,30.944-22.66,33.038-42.702
	l21.777-123.22h133.673c-9.067,7.64-14.687,15.358-12.037,21.756c3.159,7.628,15.948,8.277,30.937,6.03v698.242l-96.665,7.971
	l-0.458,0.041c-28.862,2.648-49.831,25.327-49.831,53.921v36.224c0,4.82,0.643,9.424,1.746,13.807
	c-12.729,2.552-24.375,2.933-35.064,1.012c-12.966-2.327-26.761-9.418-36.133-20.069c-0.758-1.489-1.765-2.722-2.971-3.739
	c-4.014-5.525-6.877-11.837-7.956-18.827c-1.7-11.012,2.863-23.678,11.627-32.264c7.327-7.181,16.485-10.421,25.107-8.917
	c2.771,0.488,5.418-1.368,5.903-4.143c0.486-2.772-1.369-5.418-4.143-5.903c-11.907-2.098-24.302,2.171-34.005,11.68
	c-3.124,3.061-5.758,6.517-7.961,10.186c-11.257-19.832-49.879-35.834-49.879-35.834c-4.496,31.564,22.727,75.141,42.945,62.97
	c0.077,1.265,0.134,2.531,0.327,3.78c0.703,4.553,2.05,8.971,3.935,13.19c-15.612-0.173-35.334,7.784-35.334,7.784
	c12.501,16.973,43.943,25.618,52.058,13.997c9.446,7.974,21.408,13.769,34.677,16.15c5.212,0.936,10.591,1.404,16.163,1.404
	c7.672,0,15.731-0.945,24.177-2.735c8.511,17.997,26.717,29.908,48.9,29.908h401.213c30.855,0,54.123-22.973,54.123-53.436v-36.224
	c0-28.592-20.97-51.27-49.861-53.923l-0.439-0.039l-96.654-7.97V744.912c38.316,9.75,73.444-77.87,73.444-77.87
	c-24.558-3.219-53.892,6.647-73.444,21.014V480.196c1.047-0.606,2.099-1.218,3.139-1.817c7.646-4.406,15.485-8.948,22.994-14.042
	c8.41,22.576,52.905-5.646,52.905-5.646c-8.04-7.558-20.832-11.886-31.952-12.401c3.189-3.851,5.669-7.777,7.466-11.901
	c1.766-4.053,2.734-8.261,3.062-12.411c0.658,0.471,1.305,0.945,2.046,1.387c41.25,24.596,62.323-72.182,62.323-72.182
	c-30.005,1.096-64.395,25.708-71.585,47.378c-5.115-5.598-14.009-9.748-22.436-6.183c-4.814,2.032-8.333,6.949-8.967,12.52
	c-0.558,4.907,1.295,9.416,4.953,12.062c2.284,1.647,5.468,1.135,7.121-1.145c1.65-2.281,1.135-5.471-1.145-7.121
	c-0.88-0.637-0.876-1.929-0.793-2.643c0.212-1.882,1.391-3.682,2.799-4.276c3.838-1.617,8.715,0.923,11.361,4.14
	c5.667,6.886,5.043,17.217,1.912,24.399c-3.187,7.314-9.153,14.09-18.781,21.324c-8.269,6.213-17.443,11.594-26.422,16.776V300.926
	c12.297,1.187,22.194-0.207,24.921-6.791c2.65-6.398-2.97-14.116-12.037-21.756h139.688l21.779,123.219
	c2.807,26.885,24.991,46.288,53.133,46.288h51.944c30.466,0,53.441-23.266,53.441-54.118V168.364c0-2.008-0.113-3.977-0.308-5.915
	C1046.443,136.179,1049.849,91.534,1049.849,91.534z M986.786,136.412c-5.758,9.488-8.537,18.97-6.916,26.865
	c-39.532-6.312-81.17,0.029-116.679,18.451c-21.099,1.109-40.567,10.388-60.296,20.644l-1.431,0.744
	c-8.23,4.278-16.6,8.596-25.144,12.217c9.692-20.497,9.653-53.501,9.653-53.501c-29.551,7.628-58.131,45.652-45.687,62.198
	c-13.346,0.032-27.908-4.205-37.281-14.106c13.674-9.606,23.885-19.994,20.483-28.208c-8.697-20.996-90.263,10.77-90.263,10.77
	s12.172-31.273,16.463-57.156h328.307C981.079,135.33,984.009,135.726,986.786,136.412z M587.784,269.216
	c-17.281,0-31.291-14.009-31.291-31.291c0-17.281,14.009-31.29,31.291-31.29c17.281,0,31.291,14.01,31.291,31.29
	C619.075,255.207,605.065,269.216,587.784,269.216z M607.631,135.33c-11.238,18.754-19.847,38.334-19.847,38.334
	s-8.609-19.58-19.847-38.334H607.631z M232.602,161.598c0,14.613-11.846,26.459-26.459,26.459s-26.459-11.846-26.459-26.459
	c0-13.498,10.115-24.614,23.175-26.235c0.245-0.004,0.481-0.033,0.728-0.033h5.623C222.376,136.852,232.602,148.024,232.602,161.598
	z M203.587,421.488c-19.144,0-33.038-14.181-33.038-33.72V272.694c16.671-13.729,35.594-56.757,35.594-56.757
	s8.557,19.464,19.23,36.398c2.3,9.254,4.066,18.198,3.478,27.266c-0.757,11.71-5.367,22.715-10.246,34.369
	c-4.728,11.288-9.616,22.961-10.875,35.604c-2.614,26.288,13.251,52.464,36.373,64.48c-1.586,2.167-2.917,4.681-4.038,7.435H203.587
	z M313.336,251.981l-24.895,140.861c-0.244,2.844-0.857,5.533-1.753,8.061c-0.891,0.551-1.628,1.368-2.05,2.414
	c-1.659,4.109-6.283,6.245-11.437,6.951c-2.146-1.794-4.92-3.144-8.472-3.869c-4.529-0.925-8.373-0.603-11.674,0.617
	c-21.901-8.874-37.544-32.6-35.174-56.433c0.625-6.281,2.315-12.358,4.488-18.453c5.6,17.891,28.333,38.252,28.333,38.252
	c12.876-24.775,1.773-69.756-19.582-60.018c3.846-9.579,7.223-19.497,7.911-30.105c0.22-3.405,0.144-6.773-0.126-10.109
	c5.237,5.224,10.372,8.018,14.769,6.197c17.754-7.354-9.107-76.325-9.107-76.325s68.971,26.861,76.325,9.107
	c7.354-17.754-60.41-47.53-60.41-47.53s28.612-12.584,46.622-26.268h51.046c1.64,8.015,3.868,15.89,6.641,23.566
	c-17.358-4.899-41.592-2.111-41.592-2.111c8.997,23.477,43.158,43.284,54.898,30.616c15.373,26.521,37.542,49.123,64.04,64.58
	H313.336z M464.88,251.981c-18.603-7.901-35.465-19.419-49.839-33.503c28.436-4.409,5.163-62.238,5.163-62.238
	c-12.784,9.396-21.499,28.066-22.349,42.571c-6.286-8.413-11.792-17.395-16.411-26.822c-0.423-1.522-1.084-2.903-1.948-4.157
	c-4.75-10.414-8.459-21.294-10.907-32.501h157.292c4.29,25.884,16.463,57.156,16.463,57.156s-81.566-31.766-90.263-10.77
	c-8.697,20.996,71.441,56.21,71.441,56.21s-13.156,5.782-28.228,14.055H464.88z M503.417,605.844
	c7.881,2.449,13.604,9.8,13.604,18.487c0,8.688-5.723,16.038-13.604,18.487V605.844z M356.463,1096.564v-36.224
	c0-18.097,12.882-31.918,31.327-33.611c0.08-0.007,0.16-0.015,0.241-0.021l115.387-9.515V676.005
	c7.36,14.297,20.209,35.922,29.019,32.272c12.988-5.379-6.662-55.836-6.662-55.836s50.457,19.65,55.837,6.662
	c5.38-12.988-44.193-34.771-44.193-34.771s49.573-21.783,44.193-34.771c-5.38-12.988-55.837,6.662-55.837,6.662
	s19.65-50.457,6.662-55.836c-8.81-3.65-21.659,17.976-29.019,32.273V295.871c20.36-5.281,38.928-12.506,38.928-12.506
	s-31.766,81.566-10.77,90.263c20.996,8.697,56.21-71.441,56.21-71.441s0.188,0.425,0.513,1.147
	c-10.677,34.468-12.848,71.445-6.53,106.945c-14.079-7.829-39.275-7.985-39.275-7.985c5.396,21.562,33.793,42.566,44.659,31.225
	c2.045,7.042,4.423,13.99,7.168,20.799c4.492,11.142,9.92,21.992,15.166,32.486c0.32,0.639,0.641,1.284,0.961,1.925
	c-34.249-15.024-89.933-12.346-89.933-12.346c15.922,51.642,89.778,98.774,110.911,63.829c7.583,30.073,6.175,62.145-4.226,91.441
	c-0.526,1.482-1.14,2.942-1.711,4.414c-6.75-14.896-33.817-28.61-33.817-28.61c-4.684,21.184,10.478,51.684,24.957,48.206
	c-7.793,15.164-17.2,29.836-26.438,44.176c-13.928,21.626-28.13,43.73-36.708,67.567c-5.204-15.676-37.229-28.934-37.229-28.934
	c-3.372,23.672,18.157,56.808,32.768,43.674c-2.183,8.893-3.512,18.036-3.62,27.512c-0.225,19.893,5.656,39.572,15.9,56.716
	c-14.922-6.428-41.938-1.971-41.938-1.971c9.954,22.604,47.803,39.755,51.331,17.807c0.116-0.725,0.169-1.411,0.201-2.085
	c13.615,16.837,31.799,29.928,52.404,36.268c0.098,0.03,0.196,0.02,0.295,0.044c4.255,17.564,10.858,34.534,10.858,34.534
	s-65.336-25.445-72.302-8.627c-6.966,16.817,57.225,45.024,57.225,45.024s-64.191,28.207-57.225,45.025
	c4.612,11.135,34.801,3.745,54.683-2.522c-5.254,16.321-19.086,30.009-35.806,34.076c-13.463,3.283-27.436,0.956-42.225-1.511
	c-4.364-0.727-8.876-1.477-13.335-2.062c-28.703-3.758-58.351-0.8-85.734,8.585c-7.655,2.622-15.13,5.752-22.465,9.077
	c1.678-17.872-37.881-34.252-37.881-34.252c-2.292,16.089,6.919,36.544,17.642,43.88c-8.228,4.016-16.722,8.151-25.202,11.785
	c-4.946,2.119-9.698,3.893-14.36,5.498C356.833,1102.292,356.463,1099.499,356.463,1096.564z M793.793,1026.729
	c18.446,1.694,31.329,15.515,31.329,33.611v36.224c0,19.144-14.183,33.038-33.725,33.038H390.183
	c-12.66,0-23.041-5.856-28.802-15.171c4.704-1.638,9.512-3.483,14.465-5.605c8.886-3.808,17.672-8.098,26.172-12.244
	c13.265-6.471,26.983-13.164,41.024-17.974c24.581-8.425,51.083-11.306,76.928-8.544c-17.128,11.936-31.15,42.879-31.15,42.879
	c29.537,5.202,71.593-19.578,58.854-38.776c11.816,1.706,23.84,2.594,35.767-0.31c22.413-5.451,40.502-25.262,44.844-47.821
	c3.83-1.36,6.168-2.27,6.168-2.27s-25.445,65.335-8.627,72.302c16.818,6.966,45.025-57.225,45.025-57.225
	s28.207,64.191,45.025,57.225c16.818-6.967-8.627-72.302-8.627-72.302s65.336,25.445,72.302,8.627c0.885-2.137,0.6-4.46-0.539-6.885
	l14.54,1.199C793.631,1026.714,793.712,1026.721,793.793,1026.729z M678.168,1011.282c-2.32,0.711-4.762,1.15-7.317,1.15
	c-13.843,0-25.064-11.222-25.064-25.064c0-13.843,11.222-25.064,25.064-25.064c2.547,0,5.002,0.386,7.317,1.093V1011.282z
	 M678.168,712.681c-0.166,0.499-0.331,0.997-0.466,1.496c-14.06-15.924-46.283-26.804-46.283-26.804
	c-2.329,31.298,28.733,72.771,46.749,54.465v178.886c-4.444,8.647-7.318,15.17-7.318,15.17s-28.207-64.191-45.025-57.225
	c-6.343,2.627-6.671,13.559-4.623,26.155c-21.416-8.037-39.558-24.082-51.301-43.871c44.611,20.822,75.77-84.997,75.77-84.997
	c-34.85-1.233-76.446,23.334-89.067,47.883c-0.673-4.654-1.057-9.351-1.003-14.068c0.432-38.064,21.188-70.288,43.165-104.407
	c14.339-22.267,29.169-45.288,38.047-70.298c10.65-30.009,12.447-62.752,5.379-93.705c0.478-0.628,0.867-1.329,1.012-2.16
	c3.625-20.74,20.69-36.457,34.369-45.989c0.195-0.136,0.4-0.262,0.596-0.398V712.681z M678.168,480.567
	c-2.167,1.388-4.315,2.808-6.426,4.279c-12.283,8.56-27.021,21.736-34.524,39.153c-0.206-0.597-0.409-1.195-0.622-1.789
	c0.345-9.503-3.38-17.062-9.702-23.066c-2.7-5.72-5.509-11.348-8.285-16.9c-0.112-0.224-0.225-0.453-0.337-0.677
	c34.458,7.86,34.346-68.818,34.346-68.818c-20.558,5.307-40.638,25.327-46.78,42.596c-0.692-1.611-1.404-3.22-2.056-4.836
	c-16.946-42.025-19.866-89.339-8.817-133.215c11.402,22.767,33.903,62.6,49.029,56.335c20.996-8.697-10.77-90.263-10.77-90.263
	s22.38,8.709,44.944,13.993V480.567z M893.143,392.843l-24.897-140.862H680.274c-15.072-8.273-28.228-14.055-28.228-14.055
	s22.502-9.889,42.365-22.311c13.138,14.947,34.993,20.103,53.02,18.26c21.225-2.211,40.295-12.125,58.737-21.713l1.428-0.74
	c0.611-0.318,1.206-0.616,1.814-0.93c0.177,18.657,44.204,25.932,44.204,25.932c-1.244-14.18-11.959-29.622-22.709-36.185
	c10.257-4.294,20.394-7.308,30.924-8.133c0.524,0.177,1.064,0.297,1.622,0.297c0.755,0,1.518-0.186,2.238-0.539
	c13.616-0.373,27.428,3.458,38.95,10.775c9.429,5.989,15.687,13.639,17.619,21.54c1.889,7.749-1.272,18.137-8.994,21.248
	c-7.341,2.958-16.129-1.454-20.67-7.105c-1.76-2.191-4.973-2.543-7.168-0.787c-2.198,1.763-2.55,4.973-0.787,7.168
	c5.325,6.637,14.339,11.869,23.642,11.869c2.938,0,5.906-0.521,8.795-1.683c11.741-4.734,16.851-17.664,15.769-28.981
	c17.741,6.773,52.196-6.911,52.196-6.911c-15.278-20.992-55.454-31.232-61.669-13.708c-4.161-4.814-9.009-8.557-13.268-11.261
	c-7.949-5.048-16.847-8.603-26.078-10.587c32.576-12.804,69.062-15.736,103.289-8.403c1.771,1.355,3.857,2.558,6.287,3.581
	c5.37,2.263,10.215,2.864,14.633,2.274c0.427,0.15,0.864,0.272,1.29,0.426c0.5,0.178,1.007,0.25,1.51,0.272v137.57
	c-5.171,9.75-8.657,17.661-8.657,17.661s-26.378-60.03-42.106-53.515c-15.728,6.515,8.068,67.614,8.068,67.614
	s-61.1-23.795-67.614-8.068c-6.515,15.727,53.515,42.106,53.515,42.106s-35.579,15.638-48.977,30.013
	C898.396,409.869,893.938,402.11,893.143,392.843z M1004.792,408.189c-0.801,0.083-1.59,0.206-2.413,0.206
	c-12.945,0-23.439-10.495-23.439-23.439c0-12.945,10.494-23.439,23.439-23.439c3.07,0,5.971,0.65,8.657,1.723v24.528
	C1011.035,395.648,1008.745,402.631,1004.792,408.189z"/>
</svg>
